

 
http://www.imdb.com/title/tt1951261/


When one of their own is kidnapped by an angry gangster, the Wolf Pack must track down Mr. Chow, who has escaped from prison and is on the lam. 



Director:
 Todd Phillips 

Writers:
 Todd Phillips, Craig Mazin

Stars:
 Bradley Cooper, Ed Helms, Zach Galifianakis 

Genres:
  Comedy 

Country:
 USA 

Language:
 English 




Source VIDEO: YanKeeS 1080p HD
 Source AUDIO: SUFFiCE (Thx)

 General
 Complete name                            : The.Hangover.Part.III.2013.TS.OWN.SOURCE.XviD-YanKeeS.avi
 Format                                   : AVI
 File size                                : 1.36 GiB
 Duration                                 : 1h 35mn
 Overall bit rate                         : 2 053 Kbps
 Movie name                               : YanKeeS

 Video
 ID                                       : 0
 Format                                   : MPEG-4 Visual
 Format profile                           : Advanced Simple@L5
 Format settings, BVOP                    : No
 Format settings, QPel                    : No
 Format settings, GMC                     : No warppoints
 Format settings, Matrix                  : Default (H.263)
 Codec ID                                 : XVID
 Codec ID/Hint                            : XviD
 Duration                                 : 1h 35mn
 Bit rate                                 : 1 915 Kbps
 Width                                    : 720 pixels
 Height                                   : 304 pixels
 Display aspect ratio                     : 2.35:1
 Frame rate                               : 29.970 fps
 Color space                              : YUV
 Chroma subsampling                       : 4:2:0
 Bit depth                                : 8 bits
 Scan type                                : Progressive
 Compression mode                         : Lossy
 Bits/(Pixel*Frame)                       : 0.292
 Stream size                              : 1.27 GiB (93%)
 Writing library                          : XviD 1.2.1 (UTC 2008-12-04)

 Audio
 ID                                       : 1
 Format                                   : MPEG Audio
 Format version                           : Version 1
 Format profile                           : Layer 3
 Mode                                     : Joint stereo
 Mode extension                           : MS Stereo
 Codec ID                                 : 55
 Codec ID/Hint                            : MP3
 Duration                                 : 1h 35mn
 Bit rate mode                            : Constant
 Bit rate                                 : 128 Kbps
 Channel(s)                               : 2 channels
 Sampling rate                            : 48.0 KHz
 Compression mode                         : Lossy
 Stream size                              : 87.0 MiB (6%)
 Alignment                                : Aligned on interleaves
 Interleave, duration                     : 24 ms (0.72 video frame)
 Interleave, preload duration             : 192 ms
 Title                                    : ENG




    	http://addpix.net/viewer.php?file=67672288124700295439.jpg
    	http://addpix.net/viewer.php?file=55987330651181712735.jpg
    	http://addpix.net/viewer.php?file=33164091443466345561.jpg
    	http://addpix.net/viewer.php?file=31632840306862658630.jpg